PathFileType	4	(X/Y/Z)	C:\Users\T490\OneDrive\Desktop\110_Internship_Tasks\Sprint GSG Position Analysis\results\sports2d_output\sprint_video_Sports2D\sprint_video_Sports2D_m_person00.trc
DataRate	CameraRate	NumFrames	NumMarkers	Units	OrigDataRate	OrigDataStartFrame	OrigNumFrames
25.0	25.0	10	22	m	25.0	392	523
Frame#	Time	Hip			RHip			RKnee			RAnkle			RBigToe			RSmallToe			RHeel			LHip			LKnee			LAnkle			LBigToe			LSmallToe			LHeel			Neck			Head			Nose			RShoulder			RElbow			RWrist			LShoulder			LElbow			LWrist			
		X1	Y1	Z1	X2	Y2	Z2	X3	Y3	Z3	X4	Y4	Z4	X5	Y5	Z5	X6	Y6	Z6	X7	Y7	Z7	X8	Y8	Z8	X9	Y9	Z9	X10	Y10	Z10	X11	Y11	Z11	X12	Y12	Z12	X13	Y13	Z13	X14	Y14	Z14	X15	Y15	Z15	X16	Y16	Z16	X17	Y17	Z17	X18	Y18	Z18	X19	Y19	Z19	X20	Y20	Z20	X21	Y21	Z21	X22	Y22	Z22
392	15.70810035842294	3.7369182089279778	0.38332862045065125	0.0301	3.7126291278515158	0.37903050571634544	0.0301	3.4755235579861314	0.14107483260926731	0.129	3.841044846003039	0.15818858296115101	0.023	3.9142946753195407	0.09931239659896218	0.2179	3.9236109705156497	0.11209088891342978	0.1804	3.921047843011923	0.2103289315181019	-0.0119	3.764601673203633	0.37549894938495854	0.0301	3.740875514277916	-0.02102292960707773	0.129	4.119217059793534	0.1395980086857208	0.023	4.16937459353427	0.012896370808503452	0.2179	4.185393180820742	0.03432610241448178	0.1804	4.152615408421117	0.1821655037805138	-0.0119	3.256575018547909	0.5366782053313048	0.0008	3.0414636509262	0.3937946939257148	0.0655	3.1938376322804105	0.4007437732879475	0.1076	3.30595587301962	0.600444173740011	-0.01275	3.3738869789113934	0.30650725030021586	0.0702	3.396994078861377	0.054410442421804164	0.1076	3.30658567121834	0.552070531004475	-0.01275	3.360584750290873	0.3032582413137226	0.0702	3.3943541177478873	0.06968922036898569	0.1076
393	15.748172043010753	3.7367470395975695	0.3828238213564549	0.0301	3.712804563422461	0.3775717624608572	0.0301	3.476838452545145	0.14160154996203458	0.129	3.843048640315025	0.15710845158300846	0.023	3.9146859763481725	0.0987466507033423	0.2179	3.9241990736893704	0.10833400073442528	0.1804	3.9209637759528766	0.21038806282516623	-0.0119	3.7644635526986034	0.3752912310752835	0.0301	3.740792575328625	-0.019902982662295152	0.129	4.119482349872499	0.13976433356305043	0.023	4.173205416637942	0.014259223421260818	0.2179	4.185504819975951	0.035456837419865835	0.1804	4.152597805543767	0.1821892179940009	-0.0119	3.2551020697221453	0.5366876793825505	0.0008	3.0412515836288536	0.39170567959078895	0.0655	3.1930552379086485	0.4007957964224393	0.1076	3.3066453131176594	0.600477352941179	-0.01275	3.374842797740627	0.3029026460212099	0.0702	3.396390940767481	0.05437408080284205	0.1076	3.303304559586791	0.5520469982565482	-0.01275	3.359398619036531	0.3033258554641417	0.0702	3.3932979581394664	0.07006773521742463	0.1076
394	15.788243727598566	3.7350691662150712	0.3818413203010877	0.0301	3.710106309359744	0.37578872524373574	0.0301	3.4763319926147713	0.13867843908715777	0.129	3.8435614001235168	0.15651375763172584	0.023	3.914989700962801	0.09921724143756837	0.2179	3.924123356612885	0.10689466026092877	0.1804	3.9212219329750195	0.21179014609863003	-0.0119	3.76425177098005	0.3769112344392542	0.0301	3.740315716628245	-0.019182159497445176	0.129	4.118009704866146	0.14010725608695176	0.023	4.177124074715801	0.014894009359391018	0.2179	4.185559666961063	0.0360937766073154	0.1804	4.15264882478828	0.18220510233344206	-0.0119	3.2536021085377267	0.5379117258419254	0.0008	3.0391489005563384	0.3932119547180235	0.0655	3.190810211310653	0.3997741305130344	0.1076	3.304259192977057	0.6001287898690192	-0.01275	3.37294225997403	0.3000407234412317	0.0702	3.395720044090382	0.0512561698023143	0.1076	3.300405967508767	0.5522602197394012	-0.01275	3.3578688751042223	0.3045500801176273	0.0702	3.395132681676659	0.069968232343042	0.1076
395	15.828315412186381	3.73355728689775	0.38131455566265504	0.0301	3.7081078344658445	0.37568406073696325	0.0301	3.475357854491229	0.13676045863958042	0.129	3.84351407432133	0.15678499855072095	0.023	3.9124360611513462	0.1005309701220691	0.2179	3.9208964001353857	0.1101073114403251	0.1804	3.9219957277294495	0.2116085189119811	-0.0119	3.7641201395019976	0.37768907578912353	0.0301	3.7406664968277945	-0.019576846135416902	0.129	4.116963700394174	0.14006804012394589	0.023	4.178350468929255	0.015313923669598144	0.2179	4.186268443308107	0.03662652152738899	0.1804	4.153394457349816	0.18220845428597796	-0.0119	3.253520367467938	0.5385553528829501	0.0008	3.0376395347187883	0.39856655139745745	0.0655	3.1888460923630495	0.39976226304789136	0.1076	3.303087105680555	0.6001090468267761	-0.01275	3.3712963786197485	0.3017561727350253	0.0702	3.3958630313825227	0.04955384353635685	0.1076	3.301712199907711	0.5523391275664536	-0.01275	3.3582787542857857	0.30587171382471423	0.0702	3.3968336004088915	0.06906866312816655	0.1076
396	15.868387096774194	3.7338441536337093	0.3813723866119335	0.0301	3.707648129225068	0.3771449754455593	0.0301	3.4750498215269805	0.13806218223662384	0.129	3.8416781359954415	0.15709491310318624	0.023	3.907469094436901	0.10152284670317158	0.2179	3.9163513706925257	0.11432088822288095	0.1804	3.922270098165288	0.21014693313384802	-0.0119	3.7646549092792183	0.3775536629109739	0.0301	3.7419474048314276	-0.02011934042629453	0.129	4.1186866344195865	0.13908942536404023	0.023	4.178420283233635	0.015688308127274023	0.2179	4.187977003819136	0.03694306046109093	0.1804	4.153773288138416	0.1822708520647346	-0.0119	3.254190897412618	0.5394646456832813	0.0008	3.0381563712128408	0.40196300856984424	0.0655	3.1887791822971097	0.40146380098563683	0.1076	3.305607877416758	0.6030333312848	-0.01275	3.3716245996816716	0.3064353355864227	0.0702	3.396390301348015	0.05348207167009864	0.1076	3.3046251468970533	0.5515918028078608	-0.01275	3.358781120610011	0.3064086630825774	0.0702	3.395410366284832	0.06895889703361592	0.1076
397	15.908458781362008	3.7345709452024556	0.38162187891538524	0.0301	3.707341563846065	0.3781556500396195	0.0301	3.4747245466813617	0.13923060430480605	0.129	3.839066711552329	0.15722710329583356	0.023	3.9064713182666995	0.10073420053907071	0.2179	3.9143562051956575	0.11476397328140245	0.1804	3.922238342935918	0.2096200025653557	-0.0119	3.7654000994334633	0.3780775665147017	0.0301	3.742568038290336	-0.01954352821783851	0.129	4.120737200262073	0.13736426819897757	0.023	4.177963471095306	0.015312978412817098	0.2179	4.188768938985386	0.03651322780935553	0.1804	4.152631240873922	0.18252357253263363	-0.0119	3.25474739673512	0.5410745832775459	0.0008	3.039017013447053	0.40136666125867365	0.0655	3.189289630432794	0.4032163131891752	0.1076	3.307604643445944	0.6062221913197311	-0.01275	3.3716242798004132	0.3085925334080843	0.0702	3.3960342055879	0.05733123769684879	0.1076	3.3047452914343936	0.5521271923122036	-0.01275	3.3568250608794474	0.3066772113350512	0.0702	3.393167674431829	0.0701869439761548	0.1076
398	15.94853046594982	3.7341574805550892	0.38208726378598595	0.0301	3.706489265567563	0.3776557511986127	0.0301	3.474552279288536	0.13847331941572683	0.129	3.8406275978971998	0.15757436120664065	0.023	3.910728064706948	0.09889049105903258	0.2179	3.9146397165371076	0.11150341170386738	0.1804	3.922453625153203	0.21034553805310607	-0.0119	3.7653837555900473	0.37880580761476906	0.0301	3.741964392821757	-0.018422144236385926	0.129	4.1194829909810045	0.1360011091312611	0.023	4.176757507795831	0.014198512305955362	0.2179	4.186854121138949	0.035528056774981685	0.1804	4.1514254100918055	0.1829180811485188	-0.0119	3.255215309270479	0.5415092800346455	0.0008	3.0388825829951016	0.400594803019811	0.0655	3.1888979631420606	0.4033910837123024	0.1076	3.305936633139153	0.6058994433192139	-0.01275	3.3699146879514377	0.30727306750571615	0.0702	3.3952990616902263	0.0555764517142204	0.1076	3.303752123198678	0.5548897895366512	-0.01275	3.354613130767277	0.3069430595292641	0.0702	3.3930384278461068	0.07069312923501904	0.1076
399	15.988602150537634	3.733791958267719	0.38238647222256134	0.0301	3.7058610192504498	0.376770761129606	0.0301	3.475375357007809	0.1386689861825215	0.129	3.8462907929738877	0.15817450549773635	0.023	3.9125377292784287	0.10005500873793757	0.2179	3.914665092512561	0.1090683848761939	0.1804	3.922764363395008	0.21116694875943143	-0.0119	3.7646011703416415	0.37757345782025326	0.0301	3.741317352360457	-0.01830020261801351	0.129	4.116472797563128	0.13616324460149212	0.023	4.176587977291831	0.013525927032024395	0.2179	4.185071905858283	0.034887112144663605	0.1804	4.151708072528139	0.1832162550066686	-0.0119	3.2557203173140756	0.5402982884548936	0.0008	3.0383668242895574	0.4009075358033464	0.0655	3.1883513387342526	0.4025335289913479	0.1076	3.304227713097696	0.6037233772830863	-0.01275	3.36857716714718	0.3057092130737967	0.0702	3.3956386655365085	0.05246271719767212	0.1076	3.304537237593911	0.5569005713203551	-0.01275	3.355610637518231	0.3071995691468826	0.0702	3.394069277320506	0.07040010230543975	0.1076
400	16.02867383512545	3.7348447836488985	0.38225752890342896	0.0301	3.7061539771391754	0.37647054762796306	0.0301	3.4764733142374786	0.14082584620452487	0.129	3.8476536339872816	0.1582997755753324	0.023	3.9094443036081965	0.10306786316754535	0.2179	3.9142248023237323	0.1092603761482695	0.1804	3.9230011907046394	0.21135086991829222	-0.0119	3.7643696189407216	0.375064374344219	0.0301	3.741545133431934	-0.01921917837893523	0.129	4.116104977716274	0.13805062254071515	0.023	4.178159067810598	0.013880537314048893	0.2179	4.186453967030605	0.03496320427197423	0.1804	4.152025881874366	0.18351818728236144	-0.0119	3.2557007649556655	0.5393396593905806	0.0008	3.0381732667444385	0.400396525548885	0.0655	3.1883455675655807	0.402910868396047	0.1076	3.30563170946706	0.6023347814390253	-0.01275	3.369002177739071	0.3041139434366779	0.0702	3.396605735374238	0.05234262927881912	0.1076	3.305320538843436	0.5566263701099526	-0.01275	3.358149383452086	0.3076495850706471	0.0702	3.3948108122495304	0.07149292984775497	0.1076
401	16.06874551971326	3.7355475073385898	0.38209039673293577	0.0301	3.706134984907283	0.3764332150006346	0.0301	3.476164344269679	0.14150204602712474	0.129	3.8433448424035275	0.15745747508987656	0.023	3.9094219199450326	0.10139293593135534	0.2179	3.914551697894139	0.10927068499614626	0.1804	3.9234494088668783	0.21119112561670234	-0.0119	3.7654059099964883	0.3745797160049526	0.0301	3.742081372213113	-0.019347828973123923	0.129	4.118103524418248	0.1399048928788668	0.023	4.178035898049984	0.014423694470667273	0.2179	4.187977173611562	0.035256798372866376	0.1804	4.151197116137105	0.18394456213357813	-0.0119	3.2548631615377634	0.5395680318796253	0.0008	3.037999713649254	0.399255021464179	0.0655	3.188184466209394	0.4044643100434734	0.1076	3.3068953028917214	0.601849801782398	-0.01275	3.37041107547376	0.3016711496039611	0.0702	3.396992823665256	0.052768532428134146	0.1076	3.3047315712470664	0.5552807395131737	-0.01275	3.3581767845774215	0.3073536573265471	0.0702	3.3955511762269324	0.07262099409161933	0.1076
